<svg version="1.0" xmlns="http://www.w3.org/2000/svg" width="800.000000" height="800.000000" viewBox="0 0 800.000000 800.000000" preserveAspectRatio="xMidYMid meet">
  <metadata>
    <rdf:RDF xmlns:rdf="http://www.w3.org/1999/02/22-rdf-syntax-ns#" xmlns:rdfs="http://www.w3.org/2000/01/rdf-schema#" xmlns:dc="http://purl.org/dc/elements/1.1/">
      <rdf:Description dc:format="image/svg+xml" dc:Label="1" dc:ContentProducer="001191330110MACRLGPT8B00000" dc:ProduceID="381786285" dc:ReservedCode1="Ws5D1EviTQEM452ZmE/BUSXwf9w4EHFyMWMcyS49rO4=" dc:ContentPropagator="001191330110MACRLGPT8B00000" dc:PropagateID="381786285" dc:ReservedCode2="Ws5D1EviTQEM452ZmE/BUSXwf9w4EHFyMWMcyS49rO4="/>
    </rdf:RDF>
  </metadata>
  <g transform="translate(0.000000,800.000000) scale(0.100000,-0.100000)" fill="#000000" stroke="none">
    <path d="M3835 5913 c-401 -34 -804 -209 -1112 -482 -422 -375 -661 -934 -639 -1496 12 -302 75 -549 208 -808 281 -548 788 -915 1413 -1023 124 -22 429 -24 560 -5 644 95 1184 490 1465 1072 413 856 129 1894 -660 2421 -125 83 -331 186 -455 226 -249 82 -532 116 -780 95z m467 -234 c406 -73 768 -287 1027 -609 384 -477 484 -1128 259 -1695 -219 -554 -706 -951 -1296 -1057 -163 -29 -420 -29 -583 0 -381 69 -736 267 -985 550 -209 238 -350 530 -405 838 -25 139 -30 400 -10 529 112 732 634 1285 1361 1440 182 38 432 40 632 4z"/>
    <path d="M2830 4000 l0 -640 105 0 105 0 0 240 0 240 88 0 87 0 136 -238 136 -237 121 -3 c67 -1 122 0 122 4 0 7 -255 447 -282 486 l-19 27 39 20 c59 30 122 99 156 171 29 60 31 73 31 170 0 99 -2 109 -32 166 -60 116 -174 199 -302 224 -30 5 -152 10 -272 10 l-219 0 0 -640z m471 420 c84 -23 149 -101 149 -177 0 -41 -24 -100 -53 -131 -44 -48 -74 -56 -219 -60 l-138 -4 0 191 0 191 113 0 c61 0 128 -5 148 -10z"/>
    <path d="M3840 4538 l-48 -103 104 -3 104 -3 0 -534 0 -535 105 0 105 0 2 628 c2 345 1 633 -1 640 -2 9 -44 12 -163 12 l-159 0 -49 -102z"/>
    <path d="M4705 4623 c-62 -19 -141 -71 -178 -117 -52 -66 -70 -123 -71 -216 -1 -78 2 -90 33 -147 18 -34 41 -69 52 -79 17 -16 17 -17 -10 -40 -41 -34 -87 -110 -105 -173 -33 -114 -9 -240 66 -339 154 -205 479 -208 644 -5 59 72 84 145 84 243 0 105 -27 178 -90 244 l-47 50 33 46 c46 65 64 120 64 201 0 81 -23 150 -70 209 -91 115 -262 167 -405 123z m182 -212 c49 -23 73 -55 80 -109 7 -51 -19 -105 -62 -132 -43 -27 -128 -27 -172 0 -92 55 -85 197 12 241 51 24 89 23 142 0z m50 -517 c55 -44 75 -87 70 -156 -6 -107 -88 -173 -202 -166 -109 7 -179 76 -179 179 -1 69 35 127 97 159 64 32 163 25 214 -16z"/>
  </g>
</svg>